<?xml version="1.0" standalone="no"?>
<!DOCTYPE svg PUBLIC "-//W3C//DTD SVG 20010904//EN"
 "http://www.w3.org/TR/2001/REC-SVG-20010904/DTD/svg10.dtd">
<svg version="1.0" xmlns="http://www.w3.org/2000/svg"
 width="700.000000pt" height="700.000000pt" viewBox="0 0 700.000000 700.000000"
 preserveAspectRatio="xMidYMid meet">
<metadata>
Created by potrace 1.14, written by Peter Selinger 2001-2017
</metadata>
<g transform="translate(0.000000,700.000000) scale(0.100000,-0.100000)"
fill="#000000" stroke="none">
<path d="M3260 5485 l0 -355 240 0 240 0 0 355 0 355 -240 0 -240 0 0 -355z"/>
<path d="M1847 5152 l-167 -167 250 -250 250 -250 167 168 168 167 -250 250
-250 250 -168 -168z"/>
<path d="M4735 5070 l-250 -250 168 -167 167 -168 250 250 250 250 -168 168
-167 167 -250 -250z"/>
<path d="M3295 4654 c-416 -73 -770 -379 -905 -782 -80 -240 -80 -504 0 -744
60 -179 148 -318 289 -458 138 -137 272 -220 449 -280 758 -254 1542 310 1542
1110 0 572 -410 1058 -974 1155 -108 18 -293 18 -401 -1z"/>
<path d="M1160 3500 l0 -240 355 0 355 0 0 240 0 240 -355 0 -355 0 0 -240z"/>
<path d="M5130 3500 l0 -240 355 0 355 0 0 240 0 240 -355 0 -355 0 0 -240z"/>
<path d="M1927 2262 l-247 -247 168 -168 167 -167 250 250 250 250 -165 165
c-91 91 -167 165 -170 165 -3 0 -116 -111 -253 -248z"/>
<path d="M4650 2345 l-165 -165 250 -250 250 -250 167 167 168 168 -247 247
c-137 137 -250 248 -253 248 -3 0 -79 -74 -170 -165z"/>
<path d="M3260 1515 l0 -355 240 0 240 0 0 355 0 355 -240 0 -240 0 0 -355z"/>
</g>
</svg>
